<svg width="331" height="332" viewBox="0 0 331 332" fill="none" xmlns="http://www.w3.org/2000/svg">
<path d="M89.4958 229.598C135.571 249.777 145.23 216.902 179.938 195.362C207.603 178.184 235.758 182.892 256.777 153.875C275.094 128.59 279.146 84.3812 261.02 67.1105C238.942 46.0617 202.459 48.7045 176.397 71.7585C156.537 89.3014 144.528 128.159 119.047 133.511C89.7275 139.679 73.1775 111.34 45.6979 128.643C-4.93849 160.496 81.1943 225.959 89.4958 229.598Z" fill="#4F8D66"/>
<path opacity="0.9" d="M89.4958 229.598C135.571 249.777 145.23 216.902 179.938 195.362C207.603 178.184 235.758 182.892 256.777 153.875C275.094 128.59 279.146 84.3812 261.02 67.1105C238.942 46.0617 202.459 48.7045 176.397 71.7585C156.537 89.3014 144.528 128.159 119.047 133.511C89.7275 139.679 73.1775 111.34 45.6979 128.643C-4.93849 160.496 81.1943 225.959 89.4958 229.598Z" fill="white"/>
<path d="M165.5 283.9C236.388 283.9 293.855 280.535 293.855 276.384C293.855 272.232 236.388 268.867 165.5 268.867C94.6111 268.867 37.1445 272.232 37.1445 276.384C37.1445 280.535 94.6111 283.9 165.5 283.9Z" fill="#F5F5F5"/>
<path d="M50.0142 144.412H148.811C145.879 144.376 143.067 143.234 140.936 141.214C138.804 139.194 137.508 136.444 137.306 133.509L135.558 103.975H36.7676L38.5086 133.509C38.7112 136.444 40.0071 139.194 42.1388 141.214C44.2705 143.234 47.0819 144.376 50.0142 144.412Z" fill="#4F8D66"/>
<path opacity="0.6" d="M50.0142 144.412H148.811C145.879 144.376 143.067 143.234 140.936 141.214C138.804 139.194 137.508 136.444 137.306 133.509L135.558 103.975H36.7676L38.5086 133.509C38.7112 136.444 40.0071 139.194 42.1388 141.214C44.2705 143.234 47.0819 144.376 50.0142 144.412Z" fill="white"/>
<path d="M156.132 84.3271H68.1858C66.7838 84.3105 65.3935 84.5861 64.1032 85.1364C62.8129 85.6867 61.6505 86.4997 60.6897 87.5239C59.7288 88.5482 58.9905 89.7614 58.5214 91.0868C58.0523 92.4121 57.8627 93.8207 57.9645 95.2233L60.2418 133.516C60.3456 134.919 60.1574 136.329 59.6891 137.655C59.2207 138.981 58.4825 140.195 57.5213 141.22C56.56 142.245 55.3968 143.058 54.1055 143.607C52.8143 144.157 51.4231 144.431 50.0205 144.412H148.811C150.213 144.431 151.605 144.157 152.896 143.607C154.187 143.058 155.35 142.245 156.312 141.22C157.273 140.195 158.011 138.981 158.479 137.655C158.948 136.329 159.136 134.919 159.032 133.516L159.277 137.66L156.775 95.2499C156.667 93.8446 156.852 92.4323 157.319 91.1029C157.785 89.7735 158.523 88.5562 159.485 87.5285C160.446 86.5009 161.611 85.6855 162.904 85.1343C164.197 84.5831 165.591 84.3082 166.996 84.3271H156.132Z" fill="#4F8D66"/>
<path d="M166.997 84.3262H68.1865C71.1187 84.3593 73.9309 85.499 76.0631 87.5182C78.1952 89.5374 79.4909 92.2881 79.6921 95.2224L88.1988 239.105H186.989L178.502 95.249C178.304 92.311 177.011 89.5556 174.878 87.5314C172.746 85.5073 169.932 84.3629 166.997 84.3262Z" fill="#4F8D66"/>
<path opacity="0.8" d="M166.997 84.3262H68.1865C71.1187 84.3593 73.9309 85.499 76.0631 87.5182C78.1952 89.5374 79.4909 92.2881 79.6921 95.2224L88.1988 239.105H186.989L178.502 95.249C178.304 92.311 177.011 89.5556 174.878 87.5314C172.746 85.5073 169.932 84.3629 166.997 84.3262Z" fill="white"/>
<path d="M112.977 125.282H94.6661L93.5605 106.902H111.878L112.977 125.282ZM96.6521 123.117H110.667L109.892 109.06H95.8511L96.6521 123.117Z" fill="white"/>
<path d="M115.533 168.515H97.2019L96.1162 150.129H114.447L115.533 168.515ZM99.2276 166.35H113.242L112.415 152.294H98.4001L99.2276 166.35Z" fill="white"/>
<path d="M118.081 211.749H99.7499L98.6377 193.363H116.968L118.081 211.749ZM101.782 209.585H115.797L114.963 195.528H100.948L101.782 209.585Z" fill="white"/>
<path d="M164.071 106.896H121.928V109.061H164.071V106.896Z" fill="white"/>
<path d="M159.595 115.01H122.404V117.174H159.595V115.01Z" fill="white"/>
<path d="M165.024 123.117H122.881V125.282H165.024V123.117Z" fill="white"/>
<path d="M166.619 150.129H124.476V152.294H166.619V150.129Z" fill="white"/>
<path d="M149.691 158.244H124.952V160.409H149.691V158.244Z" fill="white"/>
<path d="M138.206 166.352H125.436V168.516H138.206V166.352Z" fill="white"/>
<path d="M167.578 166.352H146.507V168.516H167.578V166.352Z" fill="white"/>
<path d="M169.167 193.363H127.024V195.528H169.167V193.363Z" fill="white"/>
<path d="M169.651 201.477H127.508V203.641H169.651V201.477Z" fill="white"/>
<path d="M151.293 209.584H127.984V211.749H151.293V209.584Z" fill="white"/>
<path d="M105.014 120.952C104.555 120.953 104.115 120.777 103.782 120.461L99.3005 116.198C99.1292 116.035 98.9916 115.841 98.8954 115.625C98.7992 115.409 98.7464 115.176 98.7399 114.939C98.7269 114.462 98.9035 113.999 99.231 113.652C99.5584 113.305 100.01 113.103 100.486 113.089C100.962 113.076 101.424 113.254 101.77 113.582L104.961 116.603L112.143 108.947C112.47 108.599 112.921 108.396 113.397 108.382C113.873 108.367 114.335 108.543 114.682 108.871C115.029 109.198 115.232 109.651 115.246 110.128C115.26 110.606 115.085 111.07 114.758 111.417L106.344 120.388C106.183 120.562 105.988 120.701 105.772 120.798C105.556 120.895 105.323 120.948 105.086 120.952H105.014Z" fill="#4F8D66"/>
<path d="M107.569 164.187C107.11 164.189 106.669 164.013 106.337 163.695L101.836 159.432C101.658 159.272 101.515 159.077 101.414 158.86C101.312 158.643 101.255 158.408 101.246 158.169C101.236 157.929 101.274 157.69 101.358 157.466C101.442 157.241 101.57 157.036 101.734 156.862C101.898 156.687 102.095 156.548 102.313 156.451C102.532 156.354 102.768 156.302 103.007 156.298C103.245 156.294 103.483 156.337 103.705 156.426C103.926 156.515 104.128 156.648 104.298 156.816L107.496 159.838L114.672 152.182C114.998 151.834 115.449 151.63 115.926 151.616C116.402 151.602 116.864 151.778 117.211 152.105C117.557 152.433 117.76 152.885 117.775 153.363C117.789 153.84 117.613 154.304 117.287 154.652L108.873 163.622C108.712 163.796 108.519 163.935 108.304 164.032C108.089 164.129 107.857 164.181 107.622 164.187H107.569Z" fill="#4F8D66"/>
<path d="M110.117 207.427C109.658 207.426 109.217 207.248 108.886 206.929L104.385 202.666C104.207 202.505 104.064 202.311 103.962 202.094C103.861 201.877 103.804 201.641 103.794 201.402C103.785 201.162 103.823 200.924 103.907 200.699C103.991 200.475 104.119 200.269 104.283 200.095C104.447 199.921 104.644 199.781 104.862 199.684C105.081 199.588 105.316 199.535 105.555 199.531C105.794 199.527 106.032 199.571 106.253 199.66C106.475 199.749 106.677 199.881 106.847 200.05L110.045 203.071L117.227 195.415C117.564 195.125 117.995 194.971 118.438 194.981C118.882 194.991 119.305 195.166 119.628 195.471C119.95 195.777 120.149 196.191 120.184 196.634C120.22 197.077 120.091 197.518 119.822 197.872L111.408 206.842C111.246 207.015 111.052 207.154 110.836 207.251C110.62 207.348 110.387 207.401 110.151 207.407L110.117 207.427Z" fill="#4F8D66"/>
<path d="M205.059 105.658L192.202 108.828L230.571 265.393L243.429 262.223L205.059 105.658Z" fill="#4F8D66"/>
<path opacity="0.2" d="M205.053 105.656L201.138 106.621L239.507 263.186L243.422 262.221L205.053 105.656Z" fill="black"/>
<path d="M242.458 264.552L232.493 267.009C231.694 267.206 231.206 268.015 231.402 268.816L233.071 275.625C233.267 276.426 234.074 276.916 234.873 276.719L244.838 274.263C245.636 274.066 246.125 273.256 245.928 272.455L244.26 265.646C244.063 264.845 243.257 264.355 242.458 264.552Z" fill="#4F8D66"/>
<path opacity="0.7" d="M242.458 264.552L232.493 267.009C231.694 267.206 231.206 268.015 231.402 268.816L233.071 275.625C233.267 276.426 234.074 276.916 234.873 276.719L244.838 274.263C245.636 274.066 246.125 273.256 245.928 272.455L244.26 265.646C244.063 264.845 243.257 264.355 242.458 264.552Z" fill="white"/>
<path d="M242.535 259.97L230.314 262.983C229.575 263.165 229.124 263.913 229.305 264.654L230.399 269.116C230.58 269.856 231.326 270.309 232.065 270.127L244.285 267.114C245.024 266.932 245.475 266.184 245.294 265.443L244.2 260.981C244.019 260.241 243.273 259.788 242.535 259.97Z" fill="#E0E0E0"/>
<path d="M205.061 105.642L192.205 108.816L193.714 98.0263L194.681 91.1074L198.739 96.7846L205.061 105.642Z" fill="#E0E0E0"/>
<path d="M198.739 96.7846L193.715 98.0263L194.681 91.1074L198.739 96.7846Z" fill="#4F8D66"/>
<path d="M238.267 95.4023C238.201 99.3863 237.433 106.896 239.525 109.346C234.716 110.932 230.405 113.753 227.02 117.527C224.153 112.826 227.893 110.296 227.893 110.296C232.018 108.968 231.766 105.854 230.899 102.992L238.267 95.4023Z" fill="#FFB573"/>
<path d="M225.802 113.471C226.894 109.401 223.816 108.823 228.946 106.831C232.958 105.237 240.538 105.012 242.319 106.293C243.305 107.01 241.948 109.52 241.948 109.52L225.802 113.471Z" fill="#263238"/>
<path d="M248.038 112.594C248.336 113.072 248.548 113.437 248.786 113.856C249.025 114.274 249.223 114.659 249.448 115.064C249.872 115.874 250.269 116.684 250.653 117.508C251.421 119.148 252.09 120.828 252.705 122.528C253.942 125.971 254.829 129.53 255.353 133.152L255.525 134.519C255.558 134.712 255.585 135.057 255.605 135.356C255.625 135.655 255.605 135.927 255.605 136.193C255.59 137.172 255.517 138.15 255.386 139.121C255.155 140.954 254.804 142.687 254.42 144.433C253.638 147.839 252.65 151.194 251.461 154.479C251.303 154.925 250.988 155.297 250.577 155.527C250.165 155.757 249.683 155.829 249.223 155.729C248.762 155.629 248.353 155.364 248.073 154.983C247.793 154.603 247.661 154.134 247.701 153.663C247.965 150.289 248.276 146.89 248.521 143.57C248.641 141.91 248.733 140.25 248.76 138.683C248.76 137.906 248.76 137.136 248.687 136.491L248.627 136.047L248.541 135.615L248.296 134.46C247.589 131.348 246.637 128.297 245.45 125.336C244.854 123.849 244.212 122.375 243.537 120.921C243.201 120.19 242.85 119.473 242.484 118.769L241.928 117.72L241.405 116.757L241.312 116.585C240.83 115.693 240.713 114.648 240.987 113.671C241.26 112.695 241.903 111.864 242.777 111.355C243.652 110.845 244.69 110.698 245.671 110.945C246.652 111.191 247.499 111.811 248.032 112.674L248.038 112.594Z" fill="#FFB573"/>
<path d="M246.265 155.82L246.814 154.903L248.363 152.287L251.203 153.901C251.792 156.557 249.992 158.907 249.992 158.907L249.191 159.571C248.918 159.809 248.565 159.934 248.203 159.921C247.842 159.907 247.499 159.756 247.244 159.498L246.629 158.927C246.241 158.518 245.997 157.994 245.931 157.434C245.865 156.874 245.982 156.307 246.265 155.82Z" fill="#FFB573"/>
<path d="M208.53 154.466L208.073 152.806C207.966 152.416 207.711 152.083 207.361 151.88C207.012 151.676 206.598 151.618 206.206 151.718L204.22 152.229L202.996 152.534C202.351 152.703 201.78 153.077 201.366 153.601C200.953 154.124 200.721 154.768 200.705 155.436V156.425C200.702 156.856 200.863 157.272 201.154 157.589C201.445 157.906 201.846 158.1 202.274 158.132L203.499 158.251C205.336 157.958 207.02 157.05 208.278 155.675C208.415 155.509 208.509 155.312 208.553 155.102C208.597 154.891 208.589 154.673 208.53 154.466Z" fill="#FFB573"/>
<path d="M244.729 109.672C248.204 111.22 251.388 114.905 253.997 121.724C253.162 124.533 244.55 129.134 244.55 129.134C244.55 129.134 233.806 106.286 244.729 109.672Z" fill="#4F8D66"/>
<path d="M215.978 118.404C216.011 120.934 211.834 126.797 216.64 130.197C217.057 135.316 217.62 140.356 218.712 148.756H244.418C241.975 139.46 244.087 133.218 248.006 116.884C248.229 116.006 248.261 115.09 248.1 114.199C247.938 113.307 247.586 112.462 247.068 111.72C246.55 110.977 245.878 110.356 245.098 109.899C244.319 109.441 243.45 109.158 242.551 109.068C241.525 108.969 240.439 108.883 239.333 108.823C235.446 108.543 231.543 108.543 227.656 108.823C226.391 108.936 225.087 109.095 223.836 109.268C221.649 109.587 219.651 110.687 218.207 112.365C216.764 114.044 215.972 116.188 215.978 118.404Z" fill="#4F8D66"/>
<path d="M224.491 115.94C224.551 117.839 224.491 119.658 224.491 121.518C224.491 123.377 224.372 125.216 224.253 127.075C224.048 130.844 223.606 134.597 222.929 138.31C222.85 138.782 222.724 139.273 222.611 139.751C222.499 140.229 222.4 140.707 222.247 141.212L222.035 141.949L221.923 142.321C221.88 142.488 221.827 142.652 221.764 142.812C221.487 143.527 221.108 144.198 220.639 144.804C219.993 145.644 219.287 146.437 218.527 147.174C217.832 147.872 217.123 148.502 216.408 149.166C213.593 151.599 210.601 153.819 207.458 155.806C207.063 156.055 206.593 156.154 206.132 156.084C205.671 156.014 205.251 155.78 204.947 155.426C204.643 155.071 204.476 154.619 204.477 154.152C204.477 153.684 204.645 153.232 204.949 152.878C207.313 150.176 209.749 147.493 212.019 144.837C212.575 144.173 213.118 143.509 213.635 142.845C214.119 142.255 214.562 141.632 214.959 140.979C215.118 140.734 215.217 140.435 215.131 140.601C215.045 140.767 215.131 140.515 215.131 140.442L215.19 140.149L215.316 139.572C215.409 139.2 215.462 138.782 215.528 138.376C215.594 137.971 215.674 137.566 215.713 137.141C216.163 133.788 216.375 130.256 216.501 126.723C216.627 123.191 216.706 119.592 216.726 116.099C216.721 115.587 216.815 115.079 217.005 114.604C217.196 114.129 217.477 113.697 217.834 113.331C218.555 112.592 219.538 112.17 220.569 112.158C221.6 112.147 222.593 112.547 223.329 113.27C224.066 113.992 224.487 114.979 224.498 116.013L224.491 115.94Z" fill="#FFB573"/>
<path d="M221.658 109.858C218.487 111.438 215.342 114.506 214.038 121.531C214.866 124.313 226.199 129.672 226.199 129.672C226.199 129.672 232.508 105.794 221.658 109.858Z" fill="#4F8D66"/>
<path d="M222.353 92.8672C222.439 93.3652 222.24 93.83 221.909 93.8897C221.578 93.9495 221.247 93.6042 221.161 93.0996C221.075 92.595 221.28 92.1368 221.605 92.077C221.929 92.0173 222.273 92.3625 222.353 92.8672Z" fill="#263238"/>
<path d="M221.77 92.0691L220.506 91.9629C220.506 91.9629 221.267 92.7796 221.77 92.0691Z" fill="#263238"/>
<path d="M222.233 93.4238C221.973 94.6618 221.548 95.859 220.969 96.9829C221.259 97.1187 221.575 97.1891 221.896 97.1891C222.216 97.1891 222.532 97.1187 222.822 96.9829L222.233 93.4238Z" fill="#ED893E"/>
<path d="M221.042 89.4394C220.966 89.4388 220.893 89.4104 220.836 89.3597C220.808 89.3319 220.786 89.2988 220.771 89.2623C220.756 89.2259 220.748 89.1867 220.748 89.1472C220.748 89.1077 220.756 89.0686 220.771 89.0321C220.786 88.9956 220.808 88.9625 220.836 88.9347C221.16 88.5775 221.563 88.3022 222.013 88.1314C222.463 87.9606 222.947 87.8991 223.425 87.952C223.463 87.9592 223.499 87.9738 223.531 87.9951C223.564 88.0164 223.591 88.0439 223.613 88.076C223.634 88.1081 223.649 88.1443 223.657 88.1822C223.664 88.2202 223.664 88.2593 223.657 88.2973C223.641 88.3768 223.594 88.4469 223.528 88.4928C223.461 88.5387 223.379 88.5567 223.299 88.543C222.92 88.5084 222.539 88.5631 222.185 88.7026C221.831 88.8421 221.514 89.0625 221.26 89.3464C221.202 89.4051 221.124 89.4385 221.042 89.4394Z" fill="#263238"/>
<path d="M238.738 87.9206C239.4 94.1622 239.797 96.7917 237.261 100.537C233.442 106.214 225.763 105.849 223.293 99.9855C221.069 94.6735 220.374 85.3775 225.908 81.7521C227.099 80.9377 228.482 80.4514 229.918 80.342C231.355 80.2326 232.796 80.5039 234.095 81.1286C235.394 81.7534 236.507 82.7097 237.322 83.9018C238.137 85.0938 238.625 86.4797 238.738 87.9206Z" fill="#FFB573"/>
<path d="M227.417 92.4813C223.445 91.7775 222.485 87.2025 223.955 85.2105C217.262 85.5093 212.754 77.9995 219.983 73.7167C227.212 69.4339 233.593 76.0672 233.077 78.5705C241.981 77.7604 247.197 85.1109 242.345 90.5756C248.746 91.6181 258.332 98.8557 251.295 106.459C260.808 107.86 261.841 137.74 235.943 132.428C208.643 126.823 232.362 102.992 232.362 102.992C232.362 102.992 225.444 101.04 227.417 92.4813Z" fill="#263238"/>
<path d="M252.778 108.405L252.215 108.059C254.619 104.142 255.016 100.576 253.394 97.4353C251.309 93.4513 246.251 91.1007 242.325 90.8749L242.365 90.2109C246.469 90.4433 251.785 92.8669 253.983 97.1232C255.691 100.443 255.274 104.334 252.778 108.405Z" fill="#263238"/>
<path d="M245.251 91.247C247.535 90.8686 246.456 87.1302 244.774 86.1409C243.093 85.1515 235.036 86.7584 235.923 89.3347C236.811 91.911 242.186 91.7583 245.251 91.247Z" fill="white"/>
<path d="M245.661 90.3027C247.939 89.8645 247.025 86.8366 245.317 85.8871C243.609 84.9376 236.572 85.6414 237.532 88.1845C238.492 90.7277 242.616 90.9069 245.661 90.3027Z" fill="#4F8D66"/>
<path d="M221.804 85.9677C220.279 85.9471 218.804 85.4167 217.613 84.4604C215.713 82.9797 214.667 80.7619 214.965 78.8098C215.144 77.5681 215.919 75.8616 218.619 74.7793L218.864 75.3968C216.958 76.1604 215.839 77.3888 215.621 78.9027C215.382 80.6291 216.329 82.6012 218.044 83.9359C218.839 84.6011 219.797 85.0416 220.819 85.212C221.84 85.3824 222.889 85.2765 223.856 84.9053L224.107 85.5228C223.377 85.8228 222.593 85.974 221.804 85.9677Z" fill="#263238"/>
<path d="M228.986 93.2124C228.688 94.8458 228.595 95.543 227.748 96.3066C227.507 96.5768 227.191 96.7677 226.84 96.8544C226.489 96.9411 226.12 96.9196 225.782 96.7926C225.443 96.6656 225.151 96.439 224.943 96.1426C224.735 95.8462 224.622 95.4937 224.617 95.1314C224.484 93.6307 224.994 91.2138 226.51 90.7091C228.026 90.2045 229.284 91.5856 228.986 93.2124Z" fill="#FFB573"/>
<path d="M225.332 98.4106L224.795 97.4478C224.773 97.4085 224.761 97.3638 224.761 97.3184C224.761 97.2729 224.773 97.2282 224.795 97.1889L225.332 96.2327C225.354 96.1912 225.388 96.1566 225.429 96.1325C225.47 96.1084 225.516 96.0957 225.563 96.0957C225.611 96.0957 225.657 96.1084 225.698 96.1325C225.738 96.1566 225.772 96.1912 225.795 96.2327L226.331 97.1889C226.354 97.2282 226.366 97.2729 226.366 97.3184C226.366 97.3638 226.354 97.4085 226.331 97.4478L225.795 98.4106C225.772 98.4522 225.738 98.4868 225.698 98.5108C225.657 98.5349 225.611 98.5477 225.563 98.5477C225.516 98.5477 225.47 98.5349 225.429 98.5108C225.388 98.4868 225.354 98.4522 225.332 98.4106Z" fill="white"/>
<path d="M218.725 148.736C218.725 148.736 217.818 182.029 216.607 203.928C215.322 224.027 213.674 271.032 213.674 271.032L218.738 271.297C218.738 271.297 229.939 231.743 229.469 207.846C242.616 174.42 237.89 149.739 237.89 149.739L218.725 148.736Z" fill="#FFB573"/>
<path d="M214.051 268.918C213.938 268.837 213.803 268.793 213.664 268.793C213.525 268.793 213.389 268.837 213.276 268.918C210.846 270.728 207.902 271.71 204.875 271.721C201.513 271.867 202.34 273.713 207.153 274.33C212.813 275.034 214.024 276.203 215.851 276.661C217.679 277.119 219.128 275.724 219.095 271.873C219.092 271.742 219.05 271.614 218.975 271.507C218.899 271.399 218.794 271.316 218.672 271.269C217.045 270.67 215.494 269.881 214.051 268.918Z" fill="#263238"/>
<path d="M225.444 148.736C225.444 148.736 234.712 188.138 240.081 206.504C245.728 225.76 250.203 269.704 250.17 271.158H254.552C254.552 271.158 260.213 235.541 253.228 206.484C252.566 159.34 244.464 148.77 244.464 148.77L225.444 148.736Z" fill="#FFB573"/>
<path d="M250.057 269.584C249.943 269.537 249.817 269.528 249.698 269.559C249.578 269.591 249.472 269.66 249.395 269.757C248.263 271.231 247.443 272.864 244.099 274.298C241.332 275.48 242.861 277.1 247.191 276.509C252.282 275.806 252.355 276.636 254.069 276.636C255.784 276.636 256.591 274.922 255.34 271.197C255.3 271.074 255.227 270.964 255.129 270.88C255.031 270.795 254.912 270.74 254.784 270.719C253.169 270.534 251.581 270.153 250.057 269.584Z" fill="#263238"/>
<path d="M218.725 148.735C218.725 148.735 214.356 177.911 214.972 217.791C228.793 217.712 242.528 215.586 255.731 211.483C255.731 211.483 255.929 159.81 244.431 148.755C237.791 146.962 218.877 148.15 218.725 148.735Z" fill="#263238"/>
<path opacity="0.2" d="M219.235 212.128C219.192 212.128 219.151 212.111 219.12 212.082C219.089 212.052 219.071 212.011 219.069 211.968C217.832 186.504 220.837 150.555 220.863 150.216C220.864 150.194 220.87 150.173 220.879 150.153C220.889 150.133 220.902 150.115 220.919 150.101C220.936 150.086 220.956 150.075 220.977 150.069C220.998 150.063 221.02 150.061 221.042 150.064C221.064 150.065 221.085 150.071 221.105 150.081C221.124 150.091 221.141 150.105 221.156 150.122C221.17 150.138 221.18 150.158 221.187 150.178C221.194 150.199 221.196 150.221 221.194 150.243C221.161 150.608 218.163 186.531 219.4 211.995C219.402 212.017 219.4 212.039 219.392 212.06C219.385 212.081 219.374 212.1 219.359 212.116C219.344 212.133 219.326 212.146 219.306 212.154C219.285 212.163 219.264 212.168 219.242 212.168L219.235 212.128Z" fill="white"/>
<path opacity="0.2" d="M236.533 186.663L240.3 166.65L241.816 171.438L236.533 186.663Z" fill="black"/>
</svg>
